# xmcd
#
# Track frame offsets: 
#        187
#        11957
#        19187
#        31202
#        45750
#        60262
#        72350
#        85520
#        108495
#        124025
#        150925
#        165517
#        178972
#        192395
#        203942
#        219970
#        233527
#        245320
#        260315
#        273747
#
# Disc length: 3875 seconds
#
# Revision: 2
# Processed by: cddbd v1.5.2PL0 Copyright (c) Steve Scherf et al.
# Submitted via: ExactAudioCopy v0.99pb3
#
DISCID=010f2114
DTITLE=Michael Nesmith and The First National Band - Complete [CDOne)
DYEAR=1993
DGENRE=Country
TTITLE0=Calico Girlfriend
TTITLE1=Nine Times Blue
TTITLE2=Little Red Rider
TTITLE3=The Crippled Lion
TTITLE4=Joanne
TTITLE5=Mama Nantucket
TTITLE6=Keys To The Car
TTITLE7=Hollywood
TTITLE8=One Rose
TTITLE9=Beyond The Blue Horizon
TTITLE10=Silver Moon
TTITLE11=I Fall To Pieces
TTITLE12=Thanx For The Ride
TTITLE13=Dedicated Friend
TTITLE14=Conversations
TTITLE15=Tengo Amore
TTITLE16=Listen To The Band
TTITLE17=Bye, Bye, Bye
TTITLE18=Lady Of The Valley
TTITLE19=Hello Lady
EXTD=
EXTT0=
EXTT1=
EXTT2=
EXTT3=
EXTT4=
EXTT5=
EXTT6=
EXTT7=
EXTT8=
EXTT9=
EXTT10=
EXTT11=
EXTT12=
EXTT13=
EXTT14=
EXTT15=
EXTT16=
EXTT17=
EXTT18=
EXTT19=
PLAYORDER=
